<svg id="Capa_1" enable-background="new 0 0 512 512" height="512" viewBox="0 0 512 512" width="512" xmlns="http://www.w3.org/2000/svg"><g><path d="m501.982 10.018c-13.357-13.357-35.013-13.357-48.371 0l-27.578 27.578 48.371 48.371 27.578-27.578c13.357-13.358 13.357-35.014 0-48.371z" fill="#ff6c6c"/><path d="m450.219 61.781 24.185 24.185 27.578-27.578c13.357-13.357 13.357-35.013 0-48.371z" fill="#c83c50"/><path d="m395.831 182.248-18.898-47.181-47.181-18.898-173.499 173.498-43.956 58.098-58.098 43.956-18.448 63.315-35.751 35.751 21.213 21.213 35.751-35.751 63.315-18.448 43.956-58.098 58.098-43.956z" fill="#ff6c6c"/><path d="m395.831 182.248-18.898-47.181-326.378 326.378-23.527 23.527-16.421 16.421 10.606 10.607 35.751-35.751 63.315-18.448 43.956-58.098 58.098-43.956z" fill="#c83c50"/><path d="m156.253 289.667 66.08 66.08-40.421 40.42-19.622 9.623-1.591 11.59-40.42 40.421-66.08-66.08 40.421-40.42 18.215-8.216 2.998-12.997z" fill="#00ddc2"/><path d="m189.293 322.707 33.04 33.04-40.421 40.42-19.185 9.185-2.028 12.028-40.42 40.421-33.04-33.04z" fill="#00aa95"/><g><path d="m123.266 327.009h30v93.45h-30z" fill="#00aa95" transform="matrix(.707 -.707 .707 .707 -223.773 207.233)"/></g><g><g><g><path d="m139.786 366.891h30v46.725h-30z" fill="#087" transform="matrix(.707 -.707 .707 .707 -230.615 223.753)"/></g></g></g><g><path d="m376.59 293.413-21.213-21.213 76.921-76.921c17.545-17.545 17.546-46.094 0-63.639l21.213-21.214c29.242 29.242 29.242 76.824 0 106.066z" fill="#c83c50"/></g><path d="m363.315 35.139h93.451v133.642h-93.451z" fill="#beebfa" transform="matrix(.707 .707 -.707 .707 192.194 -260.079)"/><path d="m403.198 51.658h46.725v133.642h-46.725z" fill="#b3d8f4" transform="matrix(.707 .707 -.707 .707 208.714 -266.922)"/></g></svg>